<?xml version="1.0" encoding="utf-8"?>
<!-- Generator: Adobe Illustrator 25.4.1, SVG Export Plug-In . SVG Version: 6.00 Build 0)  -->
<svg version="1.1" id="Layer_1" xmlns="http://www.w3.org/2000/svg" xmlns:xlink="http://www.w3.org/1999/xlink" x="0px" y="0px"
	 viewBox="0 0 162.4 18.5" style="enable-background:new 0 0 162.4 18.5;" xml:space="preserve">
<style type="text/css">
	.st0{fill:#FFFFFF;}
</style>
<g>
	<g>
		<path class="st0" d="M9.9,1.8c-4.1,0-7.4,3.3-7.4,7.4s3.3,7.4,7.4,7.4s7.4-3.3,7.4-7.4S14,1.8,9.9,1.8z M9.9,15.6
			c-3.5,0-6.4-2.9-6.4-6.4s2.9-6.4,6.4-6.4s6.4,2.9,6.4,6.4S13.4,15.6,9.9,15.6z"/>
		<ellipse class="st0" cx="9.9" cy="9.2" rx="5.4" ry="5.4"/>
	</g>
	<g>
		<g>
			<path class="st0" d="M19.2,3.8h5.6c1.4,0,2.3,0.3,3,1c0.4,0.4,0.7,1,0.7,1.8v0c0,1.3-0.7,2-1.7,2.4c1.3,0.4,2.2,1.2,2.2,2.7v0
				c0,1.9-1.5,3-4.1,3h-5.6V3.8z M24.1,8.1c0.9,0,1.4-0.3,1.4-0.9v0c0-0.6-0.5-0.9-1.4-0.9h-2v1.9H24.1z M24.5,12.2
				c0.9,0,1.5-0.4,1.5-1v0c0-0.6-0.5-1-1.5-1h-2.3v2H24.5z"/>
			<path class="st0" d="M30.8,3.8H36c1.7,0,2.8,0.4,3.5,1.2c0.6,0.6,1,1.5,1,2.5v0c0,1.7-0.9,2.8-2.2,3.3l2.6,3.8h-3.5l-2.2-3.3h0
				h-1.3v3.3h-3L30.8,3.8L30.8,3.8z M35.8,9c1,0,1.6-0.5,1.6-1.3v0c0-0.9-0.6-1.3-1.6-1.3h-2V9L35.8,9L35.8,9z"/>
			<path class="st0" d="M41.8,9.3L41.8,9.3c0-3.2,2.5-5.7,5.9-5.7s5.8,2.5,5.8,5.6v0c0,3.1-2.5,5.7-5.9,5.7S41.8,12.4,41.8,9.3z
				 M50.5,9.3L50.5,9.3c0-1.6-1.1-3-2.8-3c-1.7,0-2.8,1.3-2.8,2.9v0c0,1.6,1.1,2.9,2.8,2.9C49.4,12.2,50.5,10.8,50.5,9.3z"/>
			<path class="st0" d="M58.5,3.7h2.9l4.6,11h-3.2L62,12.7h-4.2L57,14.7h-3.2L58.5,3.7z M61.1,10.4l-1.2-3.1l-1.2,3.1H61.1z"/>
			<path class="st0" d="M67.4,3.8h4.2c3.9,0,6.1,2.2,6.1,5.4v0c0,3.1-2.3,5.5-6.2,5.5h-4.1V3.8z M71.6,12c1.8,0,3-1,3-2.8v0
				c0-1.7-1.2-2.8-3-2.8h-1.2V12L71.6,12L71.6,12z"/>
			<path class="st0" d="M79.1,9.3L79.1,9.3c0-3.2,2.4-5.7,5.7-5.7c2.2,0,3.7,0.9,4.6,2.3l-2.3,1.8c-0.6-0.8-1.3-1.3-2.4-1.3
				c-1.5,0-2.6,1.3-2.6,2.9v0c0,1.6,1.1,2.9,2.6,2.9c1.1,0,1.8-0.5,2.5-1.3l2.3,1.6c-1,1.4-2.4,2.5-4.8,2.5
				C81.6,14.9,79.1,12.5,79.1,9.3z"/>
			<path class="st0" d="M94.8,3.7h2.9l4.6,11h-3.2l-0.8-1.9h-4.2l-0.8,1.9h-3.2L94.8,3.7z M97.4,10.4l-1.2-3.1L95,10.4H97.4z"/>
			<path class="st0" d="M103,13.1l1.7-2c1.1,0.9,2.3,1.3,3.5,1.3c0.8,0,1.2-0.3,1.2-0.8v0c0-0.4-0.4-0.7-1.8-1
				c-2.3-0.5-4.1-1.2-4.1-3.4v0c0-2,1.6-3.5,4.2-3.5c1.8,0,3.3,0.5,4.5,1.5l-1.5,2.1c-1-0.7-2.1-1.1-3.1-1.1c-0.7,0-1.1,0.3-1.1,0.7
				v0c0,0.5,0.4,0.7,1.9,1.1c2.5,0.5,4.1,1.4,4.1,3.4v0c0,2.2-1.8,3.6-4.4,3.6C106.1,14.9,104.3,14.3,103,13.1z"/>
			<path class="st0" d="M116.8,6.4h-3.3V3.8h9.6v2.6h-3.3v8.2h-3C116.8,14.7,116.8,6.4,116.8,6.4z"/>
		</g>
		<g>
			<path class="st0" d="M124.6,3.8h3.2l2.6,4.2l2.6-4.2h3.2v10.9h-3V8.4l-2.8,4.3h-0.1l-2.8-4.2v6.2h-2.9L124.6,3.8L124.6,3.8z"/>
			<path class="st0" d="M138.6,3.8h8.8v2.6h-5.8V8h5.2v2.4h-5.2v1.7h5.9v2.6h-8.8V3.8z"/>
			<path class="st0" d="M149.5,3.8h4.2c3.9,0,6.1,2.2,6.1,5.4v0c0,3.1-2.3,5.5-6.2,5.5h-4.1V3.8z M153.8,12c1.8,0,3-1,3-2.8v0
				c0-1.7-1.2-2.8-3-2.8h-1.2V12L153.8,12L153.8,12z"/>
		</g>
	</g>
</g>
</svg>
