<svg xmlns="http://www.w3.org/2000/svg" viewBox="0 0 1580.07 1851.79">
    <path d="M311.1 614.44c-2.96-3.32-5.68-6.9-8.14-10.71 1.19-1.49 2.38-2.99 3.57-4.48 1.3-1.61 2.48-3.32 5.07-4.55.37-.18.77-.34 1.2-.5.66 7.04-.62 13.67-1.7 20.24Z"/>
    <path d="M652.19 1840.29c-9.04 0-17.31-4.83-25.28-14.75-5.71-7.12-10.71-15.62-15.27-25.97-9.38-21.26-20.97-42.58-35.43-65.16-10.29-16.08-22.78-31.28-34.86-45.98-8.97-10.92-18.24-22.2-26.76-33.98-12.22-16.91-28.3-24.73-52.13-25.35-2.13-.06-4.31-.08-6.49-.08-26 0-52.39 4.06-77.91 7.99-8.7 1.34-17.7 2.72-26.62 3.94-4.67.64-9.45 1.35-14.07 2.05-15.8 2.37-32.14 4.83-48.82 4.83-7.32 0-14.12-.46-20.78-1.41-1.01-.14-1.99-.22-2.93-.22-3.12 0-5.72.77-7.93 2.35-10.25 7.33-22.21 10.89-36.58 10.89-2.4 0-4.96-.1-7.59-.3-7.03-.51-14.03-.68-21.44-.87-2.84-.07-5.68-.14-8.51-.23-.61-.02-1.2-.04-1.79-.04-1.65 0-2.11.17-2.16.19-6.47 3.23-13.15 4.81-20.4 4.81-8.36 0-16.29-2.16-22.94-4.28-4.26-1.36-9.22-2.02-14.46-2.71-4.06-.54-8.27-1.09-12.57-2.02-11.69-2.52-23.56-6.74-31.13-20.44-2.37-4.28-3.79-5.44-5.72-6.19-7-2.7-12-8.81-13.04-15.95-.92-6.34 1.49-12.4 6.43-16.2 1.12-.87 1.54-1.42 1.67-1.61.02-1.23-1.38-4.71-1.98-6.23-1.93-4.86-1.78-9.8-1.67-13.4l.02-.71c.12-3.91-.81-6.84-3.1-9.83-7.32-9.54-6.4-21.06 2.23-28.86.16-.46.36-1.23.51-1.82.38-1.45.85-3.25 1.67-5.18-.73-.87-1.51-1.89-2.25-3.11-1.89-3.14-6.84-11.39-3.54-20.5 2-5.52.8-11.63-.6-18.71-.67-3.38-1.35-6.87-1.75-10.58-2.32-21.56-9.29-39.3-21.29-54.27-3.61-4.49-7.18-9.46-10.94-15.21-17.9-27.38-16.54-55.27 3.64-74.59l1.86-1.77c3.16-3.01 7.49-7.14 7.69-8.28.17-.95-.35-4.21-5.68-15.28l-.33-.68c-.64-1.32-1.29-2.69-1.93-4.19-7.28-17.31-12.83-36.18-4.19-56.94 5.07-12.18 13.77-21.22 20.76-28.49q4.25-4.41 1.09-9.88c-2.56-4.43-6.17-8.52-9.99-12.85-1.39-1.57-2.82-3.2-4.24-4.88-17.09-20.28-23.67-40.86-20.12-62.91 2.74-17.06 11.39-32.37 26.44-46.8 14.97-14.35 30.56-28.39 45.64-41.97 18.8-16.93 38.24-34.43 56.41-52.49 13.78-13.7 17.26-24.74 12.84-40.75-13.21-47.86-12.72-98.68 1.48-155.36 11.86-47.28 33.45-92.52 67.95-142.38 18.41-26.62 38.68-51.78 55.04-71.47-1.59-7.66-2.4-15.53-2.4-23.48 0-37.13 17.43-70.74 45.76-88.79.69-1.78 1.33-3.4 1.95-4.95.75-1.86 1.56-3.61 2.34-5.3 3.97-8.63 3.9-10.03 1.83-12.77l-.09-.12c-2.19-2.97-3.01-6.85-2.24-10.65.71-3.49-.93-6.58-4.14-12.19-1.53-2.69-3.27-5.73-4.64-9.08-.22-.55-.69-1.36-1.18-2.23-.6-1.05-1.27-2.24-1.91-3.6-17.73-37.95-22.19-81.48-13.66-133.09 6.22-37.58 32.66-62.32 60.31-83.46 7.37-5.63 15.4-9.78 23.17-13.8 5.55-2.87 10.79-5.58 15.6-8.71 16.19-10.54 28.5-25.51 41.52-41.36 2.25-2.73 4.49-5.46 6.76-8.17 28.54-34.1 55.64-53.3 87.87-62.25 13.49-3.74 27.23-7.24 40.51-10.63 8.12-2.07 16.51-4.21 24.72-6.37 11.97-3.16 27.83-6.94 44.37-8.21 3.05-.23 6.13-.35 9.16-.35 24.93 0 49.44 7.99 72.86 23.75 6.48 4.36 12.38 6.48 18.05 6.48 5.52 0 11.2-2.01 17.34-6.15 9.1-6.13 18.77-9.24 28.72-9.24 3.97 0 7.97.51 11.89 1.52 3.48.89 7.01 1.35 10.47 1.35 8.09 0 16.56-2.45 25.88-7.5 5.58-3.02 11.23-5.93 16.81-8.64 18.71-9.13 37.64-13.76 56.24-13.76 13.2 0 26.52 2.33 39.57 6.93 21.4 7.53 37.26 21.86 51.66 35.9 13.16 12.81 28.41 20.76 46.61 24.29 2.19.42 4.39.83 6.58 1.24 9.52 1.77 19.37 3.6 29.15 6.78 27.95 9.12 54.11 22.3 79.41 35.05 5.11 2.57 10.21 5.14 15.33 7.68 18.76 9.3 29.69 26.08 31.6 48.53 2.12 24.94 17.43 42.67 39 45.16 25.18 2.92 45.35 16.13 59.95 39.28 5.63 8.92 13.31 14.32 24.18 17.01 24.84 6.14 45.62 18.82 61.78 37.67 9.63 11.22 19.75 22.45 29.55 33.31 4.94 5.47 10.04 11.13 15.04 16.75l5.14 5.77c17.03 19.08 34.64 38.81 50.09 60.16 29.21 40.36 45.37 87.3 58.21 128.13 3.65 11.63 7.46 25.23 6.43 39.61-1.65 22.82-2.23 46.19-2.79 68.8l-.18 7.12c-.73 28.88-1.42 56.15 6.38 82.61 4.39 14.9 4.83 30.46 1.38 48.94-2.42 12.92-4.75 26.69-4.5 40.49.27 14.21-.77 27.25-3.17 39.84-6.49 33.86-26.22 61.37-58.64 81.77l-.28.17-5.74 3.17-1.28.36c-1.86.53-3.76 1.13-5.76 1.77-4.95 1.58-10.07 3.21-15.73 3.99-11 1.52-18.65 6.07-25.59 15.24-10.51 13.88-22.7 16.79-31.08 16.79-8.53 0-17.15-2.94-25.61-8.75-4.27-2.93-8.29-6.15-11.96-9.58-2.77-2.58-3.8-2.58-4.41-2.58-.27 0-.57.03-.9.08-1.53.24-3.11.36-4.68.36-6.49 0-13.15-2.02-20.35-6.19-2.06-1.19-3.95-1.77-5.79-1.77-2.35 0-4.92.92-7.84 2.81-7.44 4.8-14.41 11.03-21.32 19.07-.72.84-1.43 1.68-2.15 2.52-6.12 7.21-13.05 15.38-23.72 19.63-9.49 3.77-14.1 10.46-16.46 23.87l-.93 5.34c-2.38 13.58-4.83 27.62-7.69 41.42-6.89 33.22-8.3 67.75-4.31 105.59.74 7 1.89 13.92 3.11 21.24 2.07 12.43 4.22 25.29 4.18 38.71-.09 25.71-7.73 45.77-23.37 61.33-4.94 4.94-10.2 9.43-15.27 13.78-1.47 1.26-2.94 2.52-4.4 3.78-11.66 10.13-23.35 20.25-35.03 30.36-19.06 16.5-38.77 33.56-58.06 50.42l-26.62 23.24c-77.68 67.81-158 137.92-236.83 207.06-10.41 9.13-21.02 18.36-31.29 27.29-32.84 28.55-66.79 58.07-98.74 88.51-12.13 11.57-24.05 23.95-35.58 35.93-7.36 7.64-14.96 15.55-22.61 23.22-7.92 7.96-15.68 11.83-23.72 11.83Z" fill="#51381d"/>
    <path d="M912.22 23c11.77 0 23.68 2.03 35.75 6.28 18.93 6.66 33.45 19.64 47.46 33.29 14.77 14.38 32.17 23.41 52.45 27.34 11.51 2.23 23.14 4.02 34.36 7.67 32.6 10.64 62.65 26.95 93.19 42.1 15.94 7.9 23.77 21.78 25.25 39.2 2.77 32.6 23.8 52.68 49.14 55.61 22.88 2.65 39.5 14.9 51.54 33.99 7.36 11.66 17.77 18.73 31.15 22.04 22.11 5.47 40.82 16.5 55.81 33.99 14.59 17.01 29.82 33.48 44.73 50.22 18.82 21.13 37.88 42.05 54.51 65.02 27.34 37.77 42.75 80.95 56.56 124.84 3.61 11.49 6.8 23.21 5.93 35.33-1.81 25.05-2.33 50.14-2.96 75.23-.74 29.37-1.61 58.78 6.81 87.36 4.29 14.56 3.82 29.05 1.11 43.58-2.65 14.17-4.96 28.32-4.69 42.81.24 12.57-.6 25.07-2.97 37.47-6.33 33.04-25.63 56.68-53.47 74.19l-4.29 2.37c-6.64 1.87-13.17 4.5-19.94 5.43-14.01 1.93-24.48 8.18-33.19 19.69-6.25 8.25-13.8 12.23-21.91 12.23-6.15 0-12.63-2.29-19.11-6.73a91.335 91.335 0 0 1-10.62-8.5c-3.64-3.4-7.35-5.68-12.26-5.68-.84 0-1.72.07-2.64.21-.99.15-1.97.22-2.94.22-5.15 0-10.04-2.01-14.59-4.64-3.92-2.27-7.76-3.31-11.55-3.31-4.78 0-9.46 1.67-14.08 4.64-9.04 5.83-16.8 13.09-23.8 21.23-6.28 7.28-12.33 15.35-21.4 18.96-15.13 6.01-20.95 17.87-23.53 32.57-2.72 15.5-5.37 31.02-8.56 46.42-7.5 36.16-8.35 72.49-4.49 109.13 2.06 19.61 7.28 38.79 7.23 58.71-.07 20.36-5.28 38.58-19.98 53.21-6.03 6.02-12.66 11.44-19.1 17.03-31.03 26.95-62.17 53.77-93.12 80.8-87.87 76.71-175.77 153.4-263.47 230.32-43.75 38.38-88.23 75.96-130.38 116.12-20.08 19.14-38.81 39.69-58.4 59.36-5.61 5.64-10.67 8.44-15.57 8.44-5.47 0-10.73-3.5-16.31-10.45-5.71-7.12-10.05-15.09-13.72-23.41-10.25-23.24-22.57-45.33-36.27-66.72-18.34-28.66-42.15-53.07-61.98-80.5-15.46-21.39-35.82-29.45-61.15-30.11-2.27-.06-4.53-.09-6.8-.09-35.84 0-70.81 7.22-106.08 12.04-20.4 2.78-40.72 6.77-61.33 6.77-6.36 0-12.74-.38-19.16-1.29a31.76 31.76 0 0 0-4.55-.33c-5.18 0-10.21 1.35-14.62 4.5-9.18 6.56-19.23 8.74-29.89 8.74-2.22 0-4.46-.09-6.73-.26-10.12-.74-20.29-.8-30.44-1.12-.72-.02-1.44-.04-2.15-.04-2.5 0-4.99.24-7.29 1.39-5.17 2.58-10.21 3.6-15.27 3.6-6.35 0-12.74-1.6-19.46-3.74-8.83-2.82-18.68-2.98-28.09-5.01-10.75-2.32-18.37-5.5-23.49-14.76-2.77-5-5.88-9.12-11.63-11.35-5.86-2.26-7.79-9.21-3.75-12.32 8.76-6.75 6.5-13.34 3.35-21.22-1.13-2.84-.92-6.34-.83-9.52.19-6.42-1.52-12-5.47-17.15-3.53-4.6-3.6-9.53 1.07-13.55 3.84-3.3 3.2-8.45 5.48-12.14 3.71-6-1.44-8.53-3.68-12.23-2-3.33-3.81-7.18-2.56-10.63 4.3-11.85-.5-23.04-1.73-34.44-2.39-22.2-9.6-42.59-23.76-60.23-3.67-4.57-7.07-9.39-10.28-14.3-14.49-22.16-14.46-44.26 1.97-59.99 14.48-13.87 17.54-15.22 6.28-38.63-.69-1.44-1.4-2.88-2.02-4.35-6.55-15.57-11.15-31.27-4.17-48.05 4.1-9.86 11.19-17.41 18.43-24.93 7.99-8.3 8.49-13.69 2.77-23.6-4.18-7.24-10.07-13.08-15.4-19.4-13.06-15.5-20.91-32.83-17.56-53.67 2.61-16.27 11.49-29.25 23.04-40.32 33.51-32.12 69.23-61.83 102.2-94.6 15.36-15.27 21.77-30.41 15.82-51.97-13.74-49.79-10.94-99.67 1.55-149.5 12.74-50.78 36.74-95.98 66.25-138.63 18.03-26.07 37.81-50.77 58.09-75.07-2.22-8.36-3.41-17.23-3.41-26.43 0-35.5 17.76-66.22 43.6-81 1.06-2.82 2.14-5.63 3.27-8.42 3.88-9.58 10.7-18.72 2.68-29.33-.28-.38-.33-1.07-.23-1.57 2.25-11.11-5.69-18.8-9.41-27.89-.9-2.2-2.31-4.19-3.32-6.35-18.97-40.61-19.8-83.59-12.73-126.34 5.57-33.66 30.04-56.39 55.95-76.2 11.54-8.82 25.78-14.02 38.05-22 20.66-13.45 35.26-33.18 50.83-51.79 22.31-26.66 47.74-49 82.13-58.55 21.6-5.99 43.4-11.25 65.08-16.96 13.92-3.67 27.94-6.76 42.32-7.86 2.79-.21 5.55-.32 8.28-.32 24.26 0 46.27 8.22 66.44 21.79 8.32 5.6 16.4 8.43 24.47 8.43s15.7-2.68 23.77-8.11c6.83-4.6 14.36-7.28 22.3-7.28 2.96 0 5.98.37 9.03 1.16 4.55 1.17 8.99 1.71 13.33 1.71 10.94 0 21.28-3.43 31.35-8.89a420.43 420.43 0 0 1 16.36-8.41c16.77-8.18 33.83-12.6 51.21-12.6m0-23c-20.36 0-40.98 5.02-61.29 14.93-5.71 2.78-11.51 5.76-17.23 8.86-7.59 4.11-14.26 6.11-20.4 6.11-2.54 0-5.03-.32-7.62-.99a59.11 59.11 0 0 0-14.74-1.88c-12.11 0-24.27 3.87-35.15 11.2-4.19 2.82-7.76 4.19-10.92 4.19s-7.18-1.52-11.64-4.52c-25.34-17.05-52.02-25.7-79.27-25.7-3.32 0-6.7.13-10.03.38-17.47 1.34-33.99 5.27-46.43 8.55-8.17 2.15-16.54 4.28-24.63 6.35-13.34 3.4-27.13 6.92-40.73 10.69-19.04 5.29-36.47 14-53.27 26.64-13.53 10.17-26.73 23.03-40.35 39.31-2.31 2.76-4.61 5.55-6.82 8.25-12.45 15.14-24.2 29.45-38.92 39.02-4.32 2.81-9.31 5.39-14.6 8.12-8.21 4.24-16.69 8.63-24.87 14.88-11.9 9.1-27.14 21.49-39.48 36.67-13.73 16.89-21.97 34.57-25.19 54.05-8.93 53.98-4.16 99.71 14.58 139.83.84 1.79 1.67 3.26 2.34 4.43.21.37.49.86.62 1.11 1.64 3.95 3.53 7.28 5.21 10.21.9 1.58 2.2 3.85 2.69 5.07-.97 5.84.11 11.78 3.01 16.75-.47 1.11-1.06 2.4-1.52 3.4-.8 1.73-1.7 3.68-2.55 5.79-.23.56-.46 1.13-.69 1.71-13.36 9.28-24.64 21.93-32.92 37-9.78 17.81-14.95 38.33-14.95 59.34 0 6.84.54 13.62 1.62 20.28-15.86 19.21-34.83 42.99-52.21 68.13-35.3 51.02-57.43 97.45-69.64 146.12-14.7 58.65-15.16 111.39-1.41 161.22 2.9 10.49 2.16 17.59-9.86 29.54-17.97 17.86-37.29 35.26-55.99 52.09-15.15 13.64-30.81 27.74-45.91 42.22-16.93 16.22-26.69 33.65-29.83 53.28-2.2 13.71-.97 27.25 3.68 40.23 3.92 10.94 10.13 21.38 19 31.9 1.51 1.79 2.98 3.46 4.41 5.08 2.9 3.29 5.49 6.22 7.42 9.04-7.03 7.35-15.86 17.12-21.28 30.16-10.28 24.72-3.64 47.14 4.21 65.8.75 1.78 1.5 3.34 2.16 4.71l.32.66c1.63 3.38 2.69 5.77 3.38 7.46-.95.92-1.99 1.92-2.94 2.82-.6.58-1.23 1.17-1.88 1.8C7.25 1334.22.45 1349.31.05 1365.92c-.36 14.89 4.6 30.64 14.35 45.55 3.96 6.06 7.76 11.33 11.6 16.11 10.59 13.19 16.75 28.99 18.83 48.29.45 4.21 1.22 8.12 1.9 11.57 1.06 5.4 1.98 10.06 1.07 12.56-3.3 9.1-2.04 18.86 3.72 29.04-4.77 5.47-7.54 12.11-7.92 19.12-.42 7.81 2.09 15.5 7.26 22.24.57.74.77 1.07.73 2.47l-.02.71c-.13 4.1-.31 10.16 2 16.74-5.22 6.18-7.56 14.31-6.34 22.71 1.58 10.87 8.89 20.19 19.22 24.6.2.31.49.79.87 1.48 9.81 17.74 25.1 23.15 38.76 26.1 4.76 1.03 9.39 1.64 13.49 2.18 4.72.62 9.19 1.21 12.46 2.26 7.52 2.39 16.52 4.83 26.45 4.83 8.14 0 15.98-1.67 23.35-4.98.2 0 .39.01.58.02h.06c2.86.09 5.73.16 8.59.23 7.27.18 14.14.35 20.9.84 2.88.21 5.72.32 8.41.32 16.85 0 31-4.26 43.27-13.03.26-.19.96-.21 1.24-.21.4 0 .84.03 1.32.1 7.2 1.02 14.53 1.52 22.4 1.52 17.53 0 34.3-2.52 50.52-4.96 4.58-.69 9.33-1.4 13.92-2.03 9.02-1.23 18.07-2.62 26.82-3.97 26.25-4.04 51.04-7.86 76.16-7.86 2.08 0 4.17.03 6.19.08 20.44.53 32.93 6.5 43.12 20.59 8.73 12.07 18.11 23.5 27.19 34.55 12.41 15.11 24.13 29.37 34.05 44.88 14.15 22.09 25.46 42.89 34.6 63.6 4.98 11.28 10.48 20.61 16.82 28.52 10.16 12.65 21.68 19.06 34.25 19.06 11.1 0 21.82-5.12 31.87-15.22 7.71-7.74 15.35-15.68 22.74-23.36 11.44-11.89 23.27-24.18 35.23-35.58 31.76-30.26 65.61-59.69 98.35-88.15 10.28-8.94 20.9-18.17 31.33-27.32 78.69-69.02 158.87-139.01 236.42-206.7l27.01-23.58c19.29-16.85 39-33.91 58.06-50.41 11.48-9.94 23.35-20.22 35.02-30.35 1.44-1.25 2.89-2.49 4.34-3.73 5.24-4.49 10.66-9.13 15.93-14.39 9.45-9.4 16.49-20.54 20.92-33.08 3.87-10.96 5.77-22.84 5.81-36.32.04-14.41-2.19-27.75-4.34-40.65-1.19-7.14-2.32-13.89-3.02-20.54-3.86-36.64-2.51-70.02 4.14-102.06 2.89-13.97 5.36-28.09 7.75-41.74l.94-5.38c2-11.4 5.28-13.55 9.37-15.17 13.35-5.31 21.61-15.06 28.25-22.88.69-.81 1.38-1.63 2.07-2.43 6.2-7.21 12.36-12.74 18.85-16.92.68-.44 1.18-.69 1.5-.83.04.02.09.05.14.08 9 5.21 17.54 7.74 26.11 7.74 1.02 0 2.03-.04 3.05-.11 3.84 3.51 8.01 6.81 12.4 9.82 10.42 7.15 21.22 10.77 32.12 10.77 15.53 0 29.82-7.58 40.25-21.35 5.06-6.68 10.1-9.7 17.99-10.79 6.63-.91 12.48-2.78 17.65-4.42 1.91-.61 3.71-1.18 5.39-1.66l2.56-.72 2.33-1.29 4.29-2.37.57-.32.55-.35c35.23-22.16 56.7-52.22 63.81-89.33 2.56-13.39 3.66-27.21 3.38-42.24-.24-12.7 2-25.81 4.3-38.14 3.74-20.07 3.2-37.83-1.66-54.31-7.28-24.72-6.62-51.12-5.91-79.07l.03-1.21.15-5.92c.56-22.46 1.13-45.69 2.76-68.23 1.18-16.4-2.96-31.25-6.93-43.88-13.12-41.7-29.65-89.68-59.87-131.43-15.8-21.83-33.61-41.78-50.83-61.07-1.71-1.92-3.43-3.84-5.14-5.76-5.02-5.63-10.13-11.3-15.08-16.79-9.75-10.81-19.83-21.99-29.37-33.11-17.74-20.7-40.53-34.61-67.74-41.34-7.91-1.96-13.23-5.66-17.22-11.99-7.87-12.47-17.37-22.54-28.24-29.92-11.79-8-25.29-12.93-40.1-14.64-16.15-1.87-27.21-15.17-28.87-34.71-1.07-12.58-4.64-23.82-10.6-33.39-6.53-10.48-15.74-18.71-27.35-24.47-5.07-2.51-10.24-5.12-15.25-7.65-25.68-12.94-52.24-26.32-81.01-35.71-10.51-3.42-20.74-5.32-30.63-7.16-2.17-.4-4.33-.81-6.5-1.22-15.93-3.09-29.27-10.04-40.78-21.24-14.65-14.27-32.26-30.2-55.87-38.51-14.27-5.03-28.87-7.58-43.38-7.58Z" fill="#00ab62"/>
    <path d="M819.88 1029.38c-2.5 3.56-5.39 7.42-10.4 4.88a179.778 179.778 0 0 1-26.36-16.4c-1.98-1.49-3.73-3.32-2.37-6.07 1.49-3 4.45-2.38 8.59-2.61 9.29 1.8 19.49 5.32 29.01 10.73 4.25 2.42 4.03 5.93 1.53 9.47Z" fill="#442d21"/>
    <path d="M869.72 1093.68c-3.65-8.01-7.56-15.91-11.46-23.81-4.54-9.18-4.12-17.72 2.15-26.19 8.3-11.23 4.45-21.03-9.26-24.31-3.6-.86-7.33-1.52-11.02-1.62-8.28-.24-15.18-3.91-20.3-9.69-4.07-4.59-8.28-8.97-12.64-13.2h-.01c-3.44-3.37-6.96-6.62-10.58-9.83-4.62-4.1-9.05-5.02-14.59-3.47-11.19 3.12-18.5 12.11-19.7 22.95-.42 3.72-.11 7.67 1.01 11.67 3.34 11.94 9.99 22.39 15.14 33.51 6.12 13.21 4.23 16.96-10.26 19.17-5.38.82-9.33 3.08-10.3 8.43-2.32 12.81-5.1 25.59-5 38.71.06 8.45-1.78 16.49-5.85 23.8-4.14 7.43-9.35 14.27-13.41 21.74-7.59 13.95-6.48 27.84.79 41.48.99-.18 1.33-.14 1.46-.29.53-.59 1.28-1.17 1.45-1.87 2.89-12.25 11.39-14.42 22.44-13.18 9.02 1 17.7-.95 24.69-7.09 3.25-2.85 9.42-5.98 7.61-10.13-1.96-4.51-7.94-1.46-12.21-.63-.52.11-1.06.14-1.59.19-8.16.65-11.17-2.65-8.87-10.43 1.8-6.13 4.01-12.17 6.48-18.06 7.29-17.38 19.31-21.59 35.76-12.66 2.09 1.13 4.1 2.51 5.9 4.07 5.63 4.89 11.01 10.08 16.74 14.85 5.45 4.53 13.3 4.27 17.41-.62 4.65-5.54 1.94-10.08-2.33-14.62-4.98-5.3-10.66-9.64-16.47-13.88-6.89-5.03-13.93-9.86-20.5-15.27-3.9-3.2-7.63-7.6-5.76-13.01 1.67-4.82 6.59-6.54 11.34-5.2 15.57 4.4 31.94 6.05 46.69 13.32 1.77.87 3.3 3.34 5.55 1.09 2.02-2.02.28-4.2-.5-5.92Zm-49.84-64.3c-2.5 3.56-5.39 7.42-10.4 4.88a179.778 179.778 0 0 1-26.36-16.4c-1.98-1.49-3.73-3.32-2.37-6.07 1.49-3 4.45-2.38 8.59-2.61 9.29 1.8 19.49 5.32 29.01 10.73 4.25 2.42 4.03 5.93 1.53 9.47Z"/>
    <path d="M887.14 1161.48c-6.73 10.5-14.96 19.42-24.53 27.1-6.07 4.86-13.28 6.7-20.98 3.65-5.82-2.31-7.07-6.72-3.84-12.19 1.71-2.9 4.28-4.83 7.05-6.32 25.87-13.93 38.74-37 45.8-64.32 2.74-10.56 3.75-21.51 7.44-31.86 1.62-4.56.41-8.9-2.52-12.82-12.03-16.12-18.39-34.57-23.15-53.93-2.7-10.99-5.84-22.16-13.35-31.39-3.07-3.78-6.14-7.28-10.49-9.6-2.42-1.3-5.51-2.26-5.38-5.9 1.39-1.25 2.67-.82 3.79-.05 18.63 12.8 37.23 24.99 46.68 47.58 6.03 14.4 14.88 27.44 16.41 43.65 3.57 37.95-1.99 73.71-22.93 106.4Zm-91.89 78.12c0 5.93-3 10.74-6.71 10.74s-6.71-4.81-6.71-10.74 3-10.75 6.71-10.75 6.71 4.81 6.71 10.75Z"/>
    <path d="M1553.9 762.51c-8.42-28.58-7.55-57.99-6.81-87.36.63-25.09 1.15-50.18 2.96-75.23.87-12.12-2.32-23.84-5.93-35.33-13.81-43.89-29.22-87.07-56.56-124.84-16.63-22.97-35.69-43.89-54.51-65.02-14.91-16.74-30.14-33.21-44.73-50.22-14.99-17.49-33.7-28.52-55.81-33.99-13.38-3.31-23.79-10.38-31.15-22.04-12.04-19.09-28.66-31.34-51.54-33.99-25.34-2.93-46.37-23.01-49.14-55.61-1.48-17.42-9.31-31.3-25.25-39.2-30.54-15.15-60.59-31.46-93.19-42.1-11.22-3.65-22.85-5.44-34.36-7.67-20.28-3.93-37.68-12.96-52.45-27.34-14.01-13.65-28.53-26.63-47.46-33.29-29.9-10.54-58.83-7.4-86.96 6.32a420.43 420.43 0 0 0-16.36 8.41c-14.07 7.62-28.65 11.29-44.68 7.18-11.26-2.89-21.96-.19-31.33 6.12-16.36 11.02-31.83 10.72-48.24-.32-22.44-15.1-47.16-23.57-74.72-21.47-14.38 1.1-28.4 4.19-42.32 7.86-21.68 5.71-43.48 10.97-65.08 16.96-34.39 9.55-59.82 31.89-82.13 58.55-15.57 18.61-30.17 38.34-50.83 51.79-12.27 7.98-26.51 13.18-38.05 22-25.91 19.81-50.38 42.54-55.95 76.2-7.07 42.75-6.24 85.73 12.73 126.34 1.01 2.16 2.42 4.15 3.32 6.35 3.72 9.09 11.66 16.78 9.41 27.89-.1.5-.05 1.19.23 1.57 8.02 10.61 1.2 19.75-2.68 29.33a324.33 324.33 0 0 0-3.12 8.02c-.1.26-.28.48-.52.62-25.64 14.86-43.23 45.46-43.23 80.79 0 8.98 1.13 17.64 3.25 25.83.1.38 0 .78-.24 1.08-20.14 24.15-39.78 48.69-57.69 74.59-29.51 42.65-53.51 87.85-66.25 138.63-12.49 49.83-15.29 99.71-1.55 149.5 5.95 21.56-.46 36.7-15.82 51.97-32.97 32.77-68.69 62.48-102.2 94.6-11.55 11.07-20.43 24.05-23.04 40.32-3.35 20.84 4.5 38.17 17.56 53.67 5.33 6.32 11.22 12.16 15.4 19.4 5.72 9.91 5.22 15.3-2.77 23.6-7.24 7.52-14.33 15.07-18.43 24.93-6.98 16.78-2.38 32.48 4.17 48.05.62 1.47 1.33 2.91 2.02 4.35 11.26 23.41 8.2 24.76-6.28 38.63-16.43 15.73-16.46 37.83-1.97 59.99 3.21 4.91 6.61 9.73 10.28 14.3 14.16 17.64 21.37 38.03 23.76 60.23 1.23 11.4 6.03 22.59 1.73 34.44-1.25 3.45.56 7.3 2.56 10.63 2.24 3.7 7.39 6.23 3.68 12.23-2.28 3.69-1.64 8.84-5.48 12.14-4.67 4.02-4.6 8.95-1.07 13.55 3.95 5.15 5.66 10.73 5.47 17.15-.09 3.18-.3 6.68.83 9.52 3.15 7.88 5.41 14.47-3.35 21.22-4.04 3.11-2.11 10.06 3.75 12.32 5.75 2.23 8.86 6.35 11.63 11.35 5.12 9.26 12.74 12.44 23.49 14.76 9.41 2.03 19.26 2.19 28.09 5.01 12.07 3.84 23.08 5.96 34.73.14 2.96-1.48 6.22-1.46 9.44-1.35 10.15.32 20.32.38 30.44 1.12 13.17.98 25.53-.55 36.62-8.48 5.69-4.07 12.41-5.13 19.17-4.17 27.24 3.87 53.79-1.84 80.49-5.48 37.5-5.12 74.66-12.96 112.88-11.95 25.33.66 45.69 8.72 61.15 30.11 19.83 27.43 43.64 51.84 61.98 80.5 13.7 21.39 26.02 43.48 36.27 66.72 3.67 8.32 8.01 16.29 13.72 23.41 10.58 13.18 20 13.95 31.88 2.01 19.59-19.67 38.32-40.22 58.4-59.36 42.15-40.16 86.63-77.74 130.38-116.12 87.7-76.92 175.6-153.61 263.47-230.32 30.95-27.03 62.09-53.85 93.12-80.8 6.44-5.59 13.07-11.01 19.1-17.03 14.7-14.63 19.91-32.85 19.98-53.21.05-19.92-5.17-39.1-7.23-58.71-3.86-36.64-3.01-72.97 4.49-109.13 3.19-15.4 5.84-30.92 8.56-46.42 2.58-14.7 8.4-26.56 23.53-32.57 9.07-3.61 15.12-11.68 21.4-18.96 7-8.14 14.76-15.4 23.8-21.23 8.27-5.34 16.77-6.46 25.63-1.33 5.41 3.13 11.29 5.38 17.53 4.42 6.27-.96 10.64 1.49 14.9 5.47 3.31 3.09 6.89 5.94 10.62 8.5 15.03 10.31 30.03 9.01 41.02-5.5 8.71-11.51 19.18-17.76 33.19-19.69 6.02-.83 11.85-3 17.73-4.78 1.73-.79 4.51-2.06 6.24-2.86 27.98-17.53 47.38-41.21 53.73-74.35 2.37-12.4 3.21-24.9 2.97-37.47-.27-14.49 2.04-28.64 4.69-42.81 2.71-14.53 3.18-29.02-1.11-43.58ZM916.91 988.06c.43 1.37-1.46 2.25-2.22 1.02-11.18-18.24-26.25-33.97-45.13-47.07-1.23-.85-2.46-1.67-3.68-2.44-1.17-.74-.39-2.55.96-2.23 26.99 6.4 42.18 25.73 50.07 50.72Zm192.81 383.95c-33.13 25.5-65.81 51.52-98.22 77.94-45.67 37.21-89.88 76.02-133.57 115.48-34.47 31.12-68.2 63-101.75 95.1-32.63 31.21-64.24 63.4-96.37 95.1-6.45 6.36-6.14 6.19-10.17-2.44-7.31-15.65-13.08-31.58-11.39-49.24 2.09-21.82 9.84-41.93 19.11-61.52 10.82-22.83 27.79-41.59 41.73-62.34 17.23-25.63 36.03-50.17 50.75-77.5 6.59-12.23 13.9-23.89 17.13-37.65 1.17-4.97.9-9.41-.64-14.07-3.94-11.9-9.15-23.49-11.06-35.92-3.18-20.72-1.97-39.69 16.57-54.85 12.06-9.86 19.85-24.26 28.64-37.27 20.42-30.24 38.94-61.69 57.42-93.14 1.41-2.39 2.85-4.77 4.3-7.15 2.9-4.76 5.79-9.53 8.31-14.5 1.27-2.49 2.43-5.02 3.47-7.63-.38.01-.73.05-1.05.12-.64.14-1.19.4-1.66.74-.24.17-.46.36-.66.57-.12.12-.23.24-.34.37-1.13 1.31-1.88 3.06-3.12 4.25-21.5 20.75-40.61 44.08-65.26 61.42-12.26 8.62-25.22 15.66-40.98 16.13-20.69.62-35.58-9.4-47.58-24.83-6.22-7.98-11.62-16.6-17.42-24.92-4.82-6.9-8.47-7.16-13.33-.22-5.66 8.08-9.03 16.12-8.01 27.27 1.9 20.88 3.03 42.34-2.96 62.85-3.15 10.81-8.65 20.61-19.59 26.95-17.79 10.31-35.54 20.65-54.26 29.13-45.13 20.45-89.91 41.65-136.13 59.67-25.93 10.11-49.22 25.33-73.03 39.57-19.47 11.65-36.99 26.07-56.44 37.66-5.74 3.43-11.46 6.69-18.17 7.82-21.32 3.58-40.38 14.69-61.66 18.56-5.44.99-10.73 3.25-15.87 5.44-6.19 2.63-12.12 4.19-18.22-.06-1.04-.73-2.69-1.52-3.71-1.19-10.67 3.43-19.24-1.56-27.82-6.62-3.37-1.98-7.06-2.6-10.83-2.17-9.03 1.03-18.14 4.84-26.85-1.32-.69-.49-2.23-.29-3.13.12-17.1 7.78-32.93-1.91-49.25-3.92-6.34-.78-10.11-7.42-12.02-13.08-4.46-13.2-9.33-26.34-9.33-40.4a57.555 57.555 0 0 1 1.03-10.93c.02-.08.03-.15.05-.23.02-.08.03-.15.05-.23.07-.36.14-.71.23-1.05.08-.35.16-.7.25-1.03.21-.83.45-1.63.71-2.4.39-1.17.83-2.28 1.32-3.33.32-.71.67-1.38 1.04-2.04l.57-.96c.39-.63.8-1.23 1.24-1.8.43-.58.89-1.13 1.36-1.65 5.42-5.99 13.51-8.49 23.64-6.7 8.18 1.44 16.43 2.41 24.13-2.18 5.91-3.52 6.66-7.31.97-10.93-13.12-8.35-22.76-19.46-31.3-32.39-7.4-11.21-20.08-10.08-31.34-7.08-24.88 6.62-20.82 7.64-35.96-14.58-7.17-10.52-6.23-16.28 2.74-25.37 6.92-6.99 14.31-13.39 18.64-22.77 3.22-6.95 9.38-7.84 16.95-5.12 15.24 5.48 28.99 12.97 40.94 24.32 8 7.61 17.5 14.07 28.72 16.51 6.2 1.34 12.46.83 16.51-5.2 3.27-4.87 4.84-9.73 1.36-15.62-2.4-4.09-5.49-4.37-9.35-4.42-10.94-.14-11.82-.98-13.85-12-.33-1.83-.91-3.61-1.31-5.43-.87-3.98-3.1-3.51-4.75-.95-7.05 10.93-16.55 9.43-26.91 6.18-12.1-3.8-22.41-11.72-34.27-15.4-12.31-3.83-18.18-11.88-22.4-22.9-2.29-5.95-5.57-11.54-7.16-17.79-1.97-7.75-1.45-14.58 3.46-21.83 8.06-11.89 18.88-18.02 32.52-20.46 3.7-.66 5.78.77 8.07 3.53 13.06 15.81 28.93 28.14 47.2 37.44 7.02 3.57 13.98 2.81 20.84-.2 2.14-.94 4.43-2.62 4.81-5.07.48-3.14-2.67-3.68-4.7-4.63-16.76-7.74-30.7-19.1-43.36-32.39-5.53-5.79-7.74-14.89-17.29-16.96-2.46-.54-.78-3.56.55-5.34 8-10.74 20.29-15.22 32.54-10.2 17.02 6.97 30.78 1.54 41.82-9.44.29-.28.57-.57.85-.86.56-.58 1.11-1.17 1.66-1.77.54-.61 1.08-1.23 1.61-1.86.8-.95 1.51-1.94 2.12-2.97.15-.26.3-.52.44-.78.28-.53.54-1.06.77-1.61 1.34-3.15 1.86-6.61 1.45-10.32-.28-2.55-.98-4.8-3.26-6.08-2.96-1.67-4.35 1.09-5.97 2.61-6.02 5.68-11.63 11.83-17.94 17.16-9.54 8.08-18 7.4-26.62-1.57-5.58-5.81-9.4-12.9-13.9-19.5-12.04-17.66-36.67-15.66-46.25 3.81-2.77 5.64-2.68 11.46 2.47 16.1 2.59 2.33 5.33 4.49 8.6 7.17.69.57.57 1.68-.24 2.06-4.93 2.36-8.5 2.62-11.02-1.33-8.32-13.03-19.47-24.02-26.85-37.7-5.02-9.29-5.3-18.91-1.14-28.48 7.07-16.25 20.29-27.25 33.6-38.01 24.3-19.65 47.01-41.02 69.05-63.12 9.79-9.82 20.28-18.92 28.56-30.19 10.01-13.61 12.2-28.49 8.6-44.72-4.96-22.33-10.62-44.57-10.67-67.68v-1.17c.02-1.23 1.64-1.67 2.28-.61 4.67 7.79 11.49 13.17 19.1 18.28 12.27 8.25 14.5 22.41 17.28 35.77 1.02 4.9 1.61 9.72.44 14.95-1.88 8.39 1 14.67 9.5 18.79 10.79 5.24 20.68 12.09 29.15 20.86 8.17 8.47 10.65 8.45 21.29 1.35 9.27-6.19 16.7-6.45 25.09-.79 1.75 1.17 3.95 2.35 3.91 4.73-.05 2.8-2.44 3.93-4.74 4.74-10.56 3.72-20.93 7.94-31.98 10.26-10.91 2.29-13.91 1.69-16.07-7.32-.29-1.22-2.03-1.29-2.38-.08-1.36 4.78-.7 9.06 2.15 13.06 3.6 5.06 9.24 4.11 13.98 2.7 14.06-4.16 27.95-8.91 41.88-13.52 6.32-2.09 12.66-4.16 18.82-6.66 7.67-3.1 9.01-7.96 3.71-14.17-10.48-12.29-23.02-21.6-39.02-25.8-1.27-.33-2.11 1.31-1.09 2.15 3.81 3.1 7.62 6.21 11.48 9.25 1.88 1.48 4 2.66 6.02 3.96 1.13.73 2.47 1.55 1.94 3.07-.6 1.68-2.26 2.37-3.93 2.06-2.09-.39-4.13-1.09-6.13-1.8-17.87-6.31-35.75-12.59-53.57-19.01-4.54-1.63-9.36-3.42-9.71-9.35-.26-4.43.79-7.83 6.44-5.08.48.24.94.53 1.44.7 3.03 1.04 7.12 5.07 9.03 1.01 2.55-5.43-3.78-6.25-7.05-7.36-9.13-3.1-17.26-7.39-17.75-18.06-.61-13.25 4.19-25.04 15.6-32.29 6.11-3.89 13.92-2.46 20.92-.21 19.24 6.19 38.22 13.24 58.42 15.91 7.69 1.01 13.41-1.84 14.18-7.43 1.32-9.66 1.37-9.46-8.42-7.27-13.04 2.92-23.98-2.62-34.61-9.19-11.96-7.38-23.25-16.13-37.75-18.37-4.55-.7-9.09-1.17-13.49.17-14.96 4.59-29.38 3.31-43.71-2.82-5.5-2.35-11.06-5.31-17.67-3.71-4.9 1.19-3.42-3.12-3.29-5.21.8-12.77 3.03-25.35 5.77-37.83 9.77-44.6 28.25-85.36 53.57-123.27 18.79-28.12 39.36-54.88 60.39-81.31 1.19-1.49 2.38-2.99 3.57-4.48 1.3-1.61 2.48-3.32 5.07-4.55.37-.18.77-.34 1.2-.5.66 7.04-.62 13.67-1.7 20.24-.39 2.43-.76 4.83-1 7.25-1.08 10.95-3.64 21.36-9.79 30.77-2.31 3.54-3.8 8.01-2.83 12.27 3.05 13.36-4.3 23.68-9.93 34.28-7.99 15.06-12.04 31.39-15.42 47.71-2.5 12.02 3.24 23.09 11.02 32.36 5.1 6.07 10.68 5.15 15.8-1.1 17.12-20.96 32.41-43.06 41.91-68.6 7.16-19.24 13.72-38.7 22.14-57.45 1.82-4.06 3.77-8.01 5.87-11.84 10.72-19.64 25.18-36.06 45.54-47.3 4.55-2.51 10.34-6.47 14.49-1.89 3.95 4.35-1.31 9.36-3.56 13.53-2.92 5.39-6.29 10.46-9.89 15.37-7.87 10.73-16.8 20.69-24.35 31.67-20.07 29.22-39.7 58.72-58.04 89.07-5.93 9.8-12.09 19.46-18.03 29.26-1.23 2.02-2.04 4.32-2.88 6.54-2.43 6.38-3.8 13.35 3.33 17.01 7.25 3.71 12.71-2.03 15.87-7.39 13.69-23.2 28.79-45.5 43.41-68.09 18.33-28.34 35.1-57.74 55.87-84.47a86.213 86.213 0 0 1 22.52-20.24c19.38-12.02 28.88-10.53 49.83 6.02 12.74 10.06 25.52 20.22 37.19 31.47 11.17 10.78 23.32 21.6 23.44 39.27.05 6.89-2.71 13.09-5.44 19.04-10.14 22.05-19.38 44.41-25.18 68.01-3 12.18-6.34 45.77-6.87 67.39-.44 9.48-.37 18.96-1.18 28.45-.06.65.4 1.22 1.04 1.32 23.99 3.41 67.24 14.65 85.78 29.2 55.41 43.53 62.32 160.3 61.17 214.11-.01.67.52 1.23 1.2 1.25 22.51.64-13.06-.73 9.62-.07.64.02 1.19-.45 1.26-1.08 3.14-25.82-.22-55.64 8.79-79.93 2.57-6.93 6.24-13.87 10.83-20.7 11.61-17.32 29.03-33.9 48.86-47.53.74-.51 1.73-.06 1.9.82.13.68.44 1.33.93 1.89 1.53 1.76 4.25 1.99 6.07.52 10.6-8.54 22.57-15.79 34.66-22.36 5.45-2.97 10.93-5.8 16.33-8.55 16.12-8.21 32.36-5.97 51.13 7.04 30.42 21.08 50.4 49.42 59.56 84.39 1.35 31.32-2.92 64.54-7.1 90.52-1.06 6.55-2.72 12.98-4.93 19.24a83.811 83.811 0 0 0 4.73 66.74l47.58 91.74c11.47 22.13 30.73 84.78 61 86.8 18.92 1.27 36.39-6.49 54.22-11.44 9.6-2.67 19.47-4.55 29.17-6.93 1.3-.32 2.09 1.35 1.03 2.17-.02.01-.03.03-.05.04Z"/>
</svg>
