<svg xmlns="http://www.w3.org/2000/svg" xmlns:xlink="http://www.w3.org/1999/xlink" width="204.852" height="75.971" viewBox="0 0 204.852 75.971">
  <defs>
    <linearGradient id="linear-gradient" y1="0.5" x2="1" y2="0.5" gradientUnits="objectBoundingBox">
      <stop offset="0" stop-color="#f04b23"/>
      <stop offset="0.056" stop-color="#f05222"/>
      <stop offset="0.27" stop-color="#f36b20"/>
      <stop offset="0.494" stop-color="#f47d1f"/>
      <stop offset="0.73" stop-color="#f5881f"/>
      <stop offset="1" stop-color="#f68c1f"/>
    </linearGradient>
    <linearGradient id="linear-gradient-2" x1="0.5" y1="1" x2="0.5" gradientUnits="objectBoundingBox">
      <stop offset="0" stop-color="#fab417"/>
      <stop offset="1" stop-color="#f04b23"/>
    </linearGradient>
  </defs>
  <g id="Group_5" data-name="Group 5" transform="translate(-36.001 -37.789)">
    <g id="Group_2" data-name="Group 2" transform="translate(127.024 58.55)">
      <path id="Path_1" data-name="Path 1" d="M429.377,161.227a8.47,8.47,0,0,1,6.346,2.661,10.072,10.072,0,0,1,0,13.438,8.468,8.468,0,0,1-6.346,2.661,6.77,6.77,0,0,1-5.584-2.587v9.567H419.9V161.692h3.89v2.122A6.771,6.771,0,0,1,429.377,161.227Zm-.465,3.667a5.044,5.044,0,0,0-3.881,1.619,6.344,6.344,0,0,0,0,8.189,5.044,5.044,0,0,0,3.881,1.619,4.983,4.983,0,0,0,3.909-1.647,6.36,6.36,0,0,0,0-8.134A4.983,4.983,0,0,0,428.911,164.894Z" transform="translate(-419.903 -152.721)" fill="#040304"/>
      <path id="Path_2" data-name="Path 2" d="M523.677,161.227a8.1,8.1,0,0,1,3,.5l-.931,3.853a6.312,6.312,0,0,0-2.959-.651,3.991,3.991,0,0,0-3.071,1.265,4.979,4.979,0,0,0-1.173,3.518v9.809h-3.89v-17.83H518.5v2.01A5.9,5.9,0,0,1,523.677,161.227Z" transform="translate(-492.186 -152.721)" fill="#040304"/>
      <path id="Path_3" data-name="Path 3" d="M575.055,162.455a10.476,10.476,0,0,1,9.827-.009,8.9,8.9,0,0,1,3.443,3.369,9.832,9.832,0,0,1,0,9.585,8.9,8.9,0,0,1-3.443,3.369,10.477,10.477,0,0,1-9.827-.009,8.911,8.911,0,0,1-3.434-3.369,9.861,9.861,0,0,1,0-9.567A8.913,8.913,0,0,1,575.055,162.455Zm8.915,4.039a5.79,5.79,0,0,0-7.994,0,6.111,6.111,0,0,0,0,8.226,5.79,5.79,0,0,0,7.994,0,6.085,6.085,0,0,0,0-8.226Z" transform="translate(-534.705 -152.721)" fill="#040304"/>
      <path id="Path_4" data-name="Path 4" d="M675.73,166.219a10.892,10.892,0,0,0-2.476-1.061,10.244,10.244,0,0,0-3.034-.465,4.54,4.54,0,0,0-2.476.577,1.764,1.764,0,0,0-.893,1.545,1.287,1.287,0,0,0,.745,1.247,7.745,7.745,0,0,0,2.2.6l1.843.279q6.2.912,6.2,5.267a5.011,5.011,0,0,1-2.159,4.225,9.811,9.811,0,0,1-5.956,1.6,16.307,16.307,0,0,1-3.862-.5,10.472,10.472,0,0,1-3.788-1.787l1.805-2.922a9.29,9.29,0,0,0,5.881,1.824,6.338,6.338,0,0,0,3.015-.577,1.769,1.769,0,0,0,1.043-1.6q0-1.544-3.09-1.973l-1.861-.242a8.566,8.566,0,0,1-4.514-1.74,4.4,4.4,0,0,1-1.536-3.49,5,5,0,0,1,1.982-4.178,8.584,8.584,0,0,1,5.388-1.535,13.142,13.142,0,0,1,7.221,1.88Z" transform="translate(-604.652 -152.781)" fill="#040304"/>
      <path id="Path_5" data-name="Path 5" d="M748.19,161.227a7.821,7.821,0,0,1,6.086,2.6,9.708,9.708,0,0,1,2.345,6.766,12.079,12.079,0,0,1-.074,1.452H743.369a5.1,5.1,0,0,0,1.814,3.406,5.519,5.519,0,0,0,3.49,1.135,8.057,8.057,0,0,0,5.156-1.88l1.936,2.773a10.893,10.893,0,0,1-7.333,2.513,8.83,8.83,0,0,1-6.579-2.578,9.269,9.269,0,0,1-2.541-6.8,9.445,9.445,0,0,1,2.466-6.784A8.442,8.442,0,0,1,748.19,161.227Zm-.074,3.462a4.411,4.411,0,0,0-3.22,1.182,5.44,5.44,0,0,0-1.507,3.211h9.25a5.543,5.543,0,0,0-1.5-3.239A4.151,4.151,0,0,0,748.116,164.689Z" transform="translate(-663.581 -152.721)" fill="#040304"/>
      <path id="Path_6" data-name="Path 6" d="M833.416,141.1h1.954l5.881-6.775h4.9l-7.464,8.394,7.538,9.436h-4.932l-5.937-7.52h-1.936v7.52h-3.908v-26.8h3.908Z" transform="translate(-732.392 -125.353)" fill="#040304"/>
    </g>
    <g id="Group_4" data-name="Group 4" transform="translate(36.001 37.789)">
      <path id="Path_7" data-name="Path 7" d="M68.9,113.76l32.9-18.993V56.782L68.9,37.789,36,56.782V94.768Z" transform="translate(-36.001 -37.789)" fill="url(#linear-gradient)"/>
      <path id="Path_8" data-name="Path 8" d="M174.746,174.875l32.9-18.993V117.9l-32.9,18.993Z" transform="translate(-141.85 -98.903)" fill="#f04b23"/>
      <g id="Group_3" data-name="Group 3" transform="translate(0 0)">
        <path id="Path_9" data-name="Path 9" d="M101.794,56.782h0L68.9,37.789,36,56.782h0L68.9,75.775Z" transform="translate(-36.001 -37.789)" fill="url(#linear-gradient-2)"/>
      </g>
    </g>
  </g>
</svg>
